<svg width="34" height="34" viewBox="0 0 34 34" fill="none" xmlns="http://www.w3.org/2000/svg">
<path fill-rule="evenodd" clip-rule="evenodd" d="M26.706 9.1393C26.8271 9.0183 26.9232 8.87462 26.9889 8.71647C27.0545 8.55832 27.0883 8.38879 27.0884 8.21757C27.0885 8.04634 27.0549 7.87678 26.9895 7.71854C26.9241 7.56031 26.8281 7.41652 26.7071 7.29537C26.5861 7.17422 26.4424 7.07809 26.2843 7.01247C26.1261 6.94685 25.9566 6.91302 25.7854 6.91291C25.6141 6.91281 25.4446 6.94643 25.2863 7.01185C25.1281 7.07728 24.9843 7.17323 24.8632 7.29423L17.0001 15.1573L9.1393 7.29423C8.89463 7.04956 8.56279 6.91211 8.21677 6.91211C7.87075 6.91211 7.53891 7.04956 7.29424 7.29423C7.04956 7.53891 6.91211 7.87075 6.91211 8.21677C6.91211 8.56279 7.04956 8.89463 7.29424 9.1393L15.1573 17.0001L7.29424 24.8609C7.17309 24.9821 7.07699 25.1259 7.01142 25.2842C6.94586 25.4425 6.91211 25.6121 6.91211 25.7834C6.91211 25.9548 6.94586 26.1244 7.01142 26.2827C7.07699 26.441 7.17309 26.5848 7.29424 26.706C7.53891 26.9506 7.87075 27.0881 8.21677 27.0881C8.3881 27.0881 8.55775 27.0543 8.71604 26.9888C8.87433 26.9232 9.01815 26.8271 9.1393 26.706L17.0001 18.8429L24.8632 26.706C25.1078 26.9503 25.4396 27.0875 25.7854 27.0873C26.1312 27.0871 26.4627 26.9495 26.7071 26.7048C26.9515 26.4602 27.0886 26.1284 27.0884 25.7826C27.0882 25.4368 26.9506 25.1053 26.706 24.8609L18.8429 17.0001L26.706 9.1393Z" fill="#1BFF07"/>
</svg>
