<?xml version="1.0" encoding="iso-8859-1"?>
<!-- Uploaded to: SVG Repo, www.svgrepo.com, Generator: SVG Repo Mixer Tools -->
<svg fill="#000000" height="800px" width="800px" version="1.1" id="Layer_1" xmlns="http://www.w3.org/2000/svg" xmlns:xlink="http://www.w3.org/1999/xlink" 
	 viewBox="0 0 463 463" xml:space="preserve">
<g>
	<g>
		<g>
			<path d="M383.5,16H183v-0.5C183,6.953,176.047,0,167.5,0h-32C126.953,0,120,6.953,120,15.5V16H79.5C66.542,16,56,26.542,56,39.5
				v400c0,12.958,10.542,23.5,23.5,23.5h304c12.958,0,23.5-10.542,23.5-23.5v-400C407,26.542,396.458,16,383.5,16z M135,15.5
				c0-0.276,0.225-0.5,0.5-0.5h32c0.275,0,0.5,0.224,0.5,0.5v53.594l-14.128-4.709C153.102,64.128,152.301,64,151.5,64
				c-0.801,0-1.602,0.128-2.372,0.385L135,69.094V15.5z M392,439.5c0,4.687-3.813,8.5-8.5,8.5h-304c-4.687,0-8.5-3.813-8.5-8.5v-400
				c0-4.687,3.813-8.5,8.5-8.5H120v48.5c0,2.411,1.159,4.675,3.114,6.084c1.956,1.409,4.47,1.792,6.758,1.031l21.628-7.209
				l21.628,7.209c0.775,0.258,1.575,0.385,2.371,0.385c1.555,0,3.093-0.483,4.387-1.416C181.841,84.174,183,81.91,183,79.5V31h200.5
				c4.687,0,8.5,3.813,8.5,8.5V439.5z"/>
			<path d="M95.5,48c-4.143,0-7.5,3.358-7.5,7.5v368c0,4.142,3.357,7.5,7.5,7.5s7.5-3.358,7.5-7.5v-368
				C103,51.358,99.643,48,95.5,48z"/>
			<path d="M303.5,120h-112c-12.958,0-23.5,10.542-23.5,23.5v16c0,12.958,10.542,23.5,23.5,23.5h112c12.958,0,23.5-10.542,23.5-23.5
				v-16C327,130.542,316.458,120,303.5,120z M312,159.5c0,4.687-3.813,8.5-8.5,8.5h-112c-4.687,0-8.5-3.813-8.5-8.5v-16
				c0-4.687,3.813-8.5,8.5-8.5h112c4.687,0,8.5,3.813,8.5,8.5V159.5z"/>
			<path d="M303.5,200h-112c-4.143,0-7.5,3.358-7.5,7.5c0,4.142,3.357,7.5,7.5,7.5h112c4.143,0,7.5-3.358,7.5-7.5
				C311,203.358,307.643,200,303.5,200z"/>
			<path d="M303.5,232h-112c-4.143,0-7.5,3.358-7.5,7.5c0,4.142,3.357,7.5,7.5,7.5h112c4.143,0,7.5-3.358,7.5-7.5
				C311,235.358,307.643,232,303.5,232z"/>
		</g>
	</g>
</g>
</svg>